<?xml version="1.0" standalone="no"?>
<!DOCTYPE svg PUBLIC "-//W3C//DTD SVG 20010904//EN"
 "http://www.w3.org/TR/2001/REC-SVG-20010904/DTD/svg10.dtd">
<svg version="1.0" xmlns="http://www.w3.org/2000/svg"
 width="500.000000pt" height="500.000000pt" viewBox="0 0 500.000000 500.000000"
 preserveAspectRatio="xMidYMid meet">
<metadata>
Created by potrace 1.14, written by Peter Selinger 2001-2017
</metadata>
<g transform="translate(0.000000,500.000000) scale(0.100000,-0.100000)"
fill="#000000" stroke="none">
<path d="M2274 4989 c-207 -13 -427 -60 -637 -135 -162 -58 -266 -107 -452
-214 -51 -28 -201 -132 -237 -162 -15 -13 -48 -41 -75 -63 -206 -172 -407
-413 -545 -655 -166 -292 -260 -574 -309 -925 -20 -141 -16 -528 6 -635 3 -14
8 -47 11 -75 4 -27 21 -108 39 -180 218 -881 894 -1562 1780 -1795 39 -10 97
-23 130 -29 33 -6 70 -13 81 -15 126 -25 488 -38 619 -22 28 3 75 8 105 11 93
11 290 53 395 86 704 218 1271 734 1553 1414 134 323 188 610 184 980 -5 644
-266 1253 -734 1716 -188 187 -392 331 -641 453 -407 200 -800 276 -1273 245z"/>
</g>
</svg>
